<?xml version="1.0" encoding="UTF-8"?> <svg xmlns="http://www.w3.org/2000/svg" id="Layer_1" viewBox="0 0 362.08 67.73"><defs><style>.cls-1{fill:#fff;}.cls-2{fill:#020000;}</style></defs><path class="cls-2" d="M69.05,50.5c-1.42,0-2.23-.87-2.23-2.38v-28.24l4.88-.54.42-4.3h-5.4v-6.24l-5.4.25-1.67,5.81-3.94.18-.15,4.28,3.44.55v28.3c0,6.27,4.53,7.21,7.24,7.21,3.39,0,5.57-.82,6.16-1.06l.17-.07-.36-3.73h-3.16Z"></path><path class="cls-2" d="M92.29,16.2h-.1c-3.4,0-6.48.9-8.96,2.62v-.18l-.66-2.42-9.29,1.29v3.73l3.25.32v29.15l-2.75.63-.16,3.6h13.55l.26-3.6-3.09-.64v-28.2c.69-.46,1.54-.77,2.64-.97l.49,4.36,5.34.2.94-8.59-1.48-1.29Z"></path><path class="cls-2" d="M264.14,18.81l-.84-2.87-10.37,1.19v3.32l3.53.32v27.47c-.44.63-.84,1.13-1.25,1.54-.67.28-1.49.42-2.43.42-2.52,0-3.74-1.57-3.74-4.79v-26.6l-.84-2.87-10.27,1.19v3.32l3.42.32v25.55c0,2.73.88,9.07,9.08,9.07,3.22,0,5.2-1.32,6.83-2.83l.7,2.37h8.85l.41-3.69-3.09-.6v-31.84Z"></path><path class="cls-2" d="M53.84,24.59c0-5.37-3.2-8.7-8.35-8.7-2.86,0-5.31,1.01-7.47,3.09v-.61l-.73-2.15-8.99,1.29v3.73l3.42.32v29.1l-2.92.59-.16,3.69h13.59l.26-3.69-3.09-.59v-27.28c.34-.47.7-.94,1.09-1.26.7-.22,1.3-.38,2.15-.38,2.39,0,3.51,1.4,3.51,4.42v28.78h10.6l.21-3.69-3.12-.59v-26.07Z"></path><polygon class="cls-2" points="20.98 43.29 20.21 50.47 12.59 50.47 12.59 28.95 15.64 28.95 16.5 32.63 20.56 32.63 20.56 21.36 16.45 21.26 15.64 24.85 12.59 24.85 12.59 4.28 20.15 4.28 20.47 10.86 26.15 11.01 26.81 0 .26 0 0 4.2 4.2 4.75 4.2 49.96 .48 50.55 .27 54.93 27.35 54.93 26.92 43.49 20.98 43.29"></polygon><path class="cls-2" d="M287.09,16.2h-.1c-3.4,0-6.48.9-8.96,2.62v-.18l-.66-2.42-9.29,1.29v3.73l3.25.32v29.15l-2.75.63-.16,3.6h13.56l.26-3.6-3.09-.64v-28.2c.69-.46,1.54-.77,2.64-.97l.49,4.36,5.34.2.94-8.59-1.48-1.29Z"></path><path class="cls-2" d="M162.43,16.2h-.1c-3.4,0-6.48.9-8.96,2.62v-.18l-.66-2.42-9.29,1.29v3.73l3.25.32v29.15l-2.75.63-.16,3.6h13.56l.26-3.6-3.09-.64v-28.2c.69-.46,1.54-.77,2.64-.97l.49,4.36,5.34.2.94-8.59-1.48-1.29Z"></path><path class="cls-2" d="M212.31,24.59c0-5.37-3.2-8.7-8.35-8.7-2.86,0-5.31,1.01-7.47,3.09v-.61l-.73-2.15-8.99,1.29v3.73l3.42.32v29.1l-2.92.59-.15,3.69h13.59l.26-3.69-3.09-.59v-27.28c.34-.47.7-.94,1.09-1.26.7-.22,1.3-.38,2.15-.38,2.39,0,3.51,1.4,3.51,4.42v28.78h10.6l.21-3.69-3.12-.59v-26.07Z"></path><path class="cls-2" d="M105.67,15.82c-4.15-.07-7.52,2.09-9.76,6.26-1.84,3.42-2.9,8.17-2.99,13.38-.21,11.86,4.67,19.91,12.14,20.04.08,0,.16,0,.24,0,3.53,0,6.84-1.35,9.37-3.82l.13-.13-1.35-2.99-.24.14c-2.25,1.27-4.04,1.77-6.13,1.73-4.14-.07-6.22-6.42-6.17-12.74l14.49.08.86-2.03.02-.09c.21-12.29-3.75-19.7-10.61-19.82ZM100.83,33.89c.07-2.62.77-9.5,2.2-12.54,1.04-.68,1.58-.8,2.31-.78,2.33.04,3.72,4.65,3.93,12.99l-8.44.33Z"></path><path class="cls-2" d="M133.28,16.08c-3.97,0-6.16,2-7.23,3.23v-.29l-.84-2.87-9.29,1.29v3.58l3.43.45v42.11l-2.89.59-.16,3.56h13.58l.26-3.55-3.09-.59v-11.11c1.29.62,2.94.97,4.62.97,11.32,0,11.32-14.62,11.32-19.42,0-8.67-2.55-17.94-9.71-17.94ZM134.1,47.82c-1.05.51-2.16.74-3.5.74-1.44,0-2.6-.23-3.55-.72v-24.48c.42-.64.93-1.22,1.29-1.63.83-.29,1.65-.42,2.56-.42,2.09,0,4.49,1.6,4.49,14.03,0,6.97-1.02,11.55-1.3,12.46Z"></path><path class="cls-2" d="M176.16,15.82c-4.16-.07-7.52,2.09-9.76,6.26-1.84,3.42-2.9,8.17-2.99,13.38-.21,11.86,4.67,19.91,12.14,20.04.08,0,.16,0,.24,0,3.53,0,6.84-1.35,9.37-3.82l.13-.13-1.35-2.99-.24.14c-2.25,1.27-4.02,1.76-6.13,1.73-4.14-.07-6.22-6.42-6.17-12.74l14.49.08.86-2.03.02-.09c.21-12.29-3.75-19.7-10.61-19.82ZM171.33,33.89c.07-2.62.77-9.5,2.2-12.54,1.04-.68,1.57-.8,2.31-.78,2.33.04,3.72,4.65,3.93,12.99l-8.44.33Z"></path><path class="cls-2" d="M227.67,15.82c-4.16-.07-7.52,2.09-9.76,6.26-1.84,3.42-2.9,8.17-2.99,13.38-.21,11.86,4.67,19.91,12.14,20.04.08,0,.16,0,.24,0,3.53,0,6.84-1.35,9.37-3.82l.13-.13-1.35-2.99-.24.14c-2.26,1.26-4.02,1.76-6.13,1.73-4.14-.07-6.22-6.42-6.17-12.74l14.49.08.86-2.03.02-.09c.21-12.29-3.75-19.7-10.61-19.82ZM222.84,33.89c.07-2.62.77-9.5,2.2-12.54,1.04-.68,1.58-.8,2.31-.78,3.22.06,3.82,8.9,3.93,12.99l-8.44.33Z"></path><path class="cls-2" d="M284.64,51.22c-1.09,0-1.94.85-1.94,1.94s.85,1.93,1.94,1.93,1.94-.85,1.94-1.93-.85-1.94-1.94-1.94ZM284.64,51.74c.79,0,1.39.61,1.39,1.41,0,.41-.15.76-.41,1.01l-.57-.85c.31-.09.48-.3.48-.62,0-.43-.25-.64-.75-.64h-.87v2.22h.39v-.93h.33l.59.93h.29c-.24.19-.53.3-.87.3-.79,0-1.39-.61-1.39-1.41s.6-1.41,1.39-1.41ZM285.14,52.69c0,.28-.22.3-.56.3h-.27v-.59h.4c.38,0,.43.17.43.29Z"></path><path class="cls-2" d="M284.64,55.16c-1.12,0-2-.88-2-2s.88-2,2-2,2,.88,2,2-.88,2-2,2ZM284.64,51.29c-1.05,0-1.87.82-1.87,1.87s.82,1.87,1.87,1.87,1.87-.82,1.87-1.87-.82-1.87-1.87-1.87ZM284.64,54.63c-.83,0-1.45-.64-1.45-1.48s.63-1.48,1.45-1.48,1.45.64,1.45,1.48c0,.4-.14.77-.41,1.04h.01l-.09.08h0s-.06.04-.06.04c-.26.21-.57.32-.91.32ZM283.98,54.33c.19.11.42.17.66.17s.46-.06.65-.17h-.11l-.59-.93h-.23v.93h-.4ZM283.86,52.06c-.33.24-.53.63-.53,1.1s.21.85.53,1.09v-2.19ZM285.26,54.2h.3l-.62-.92.09-.02c.28-.08.43-.27.43-.56,0-.39-.22-.58-.68-.58h-.8v2.08h.26v-.93h.43l.59.93ZM285.16,53.35l.48.71c.21-.24.33-.56.33-.91,0-.77-.57-1.35-1.32-1.35-.25,0-.47.06-.66.17h.81c.67,0,.81.39.81.71s-.16.55-.44.66ZM284.59,53.05h-.34v-.72h.47c.33,0,.49.12.49.36,0,.36-.35.36-.62.36ZM284.38,52.92h.21c.37,0,.49-.03.49-.23,0-.07,0-.23-.36-.23h-.34v.46Z"></path><rect x="304.69" y="10.03" width="57.39" height="49.26" rx="10" ry="10"></rect><path class="cls-1" d="M319.11,28.16h-6.07v-4.5h17.72v4.5h-6.05v17.5h-5.6v-17.5Z"></path><path class="cls-1" d="M332.65,23.66h6.28l4.21,16.53h.11l4.21-16.53h6.28l-6.97,22h-7.15l-6.97-22Z"></path></svg> 